<svg xmlns="http://www.w3.org/2000/svg" version="1.1" xmlns:xlink="http://www.w3.org/1999/xlink" xmlns:svgjs="http://svgjs.dev/svgjs" width="1000" height="623" viewBox="0 0 1000 623"><g transform="matrix(1,0,0,1,-0.6060606060606233,69.46115912158018)"><svg viewBox="0 0 396 247" data-background-color="#d2d6dc" preserveAspectRatio="xMidYMid meet" height="623" width="1000" xmlns="http://www.w3.org/2000/svg" xmlns:xlink="http://www.w3.org/1999/xlink"><g id="tight-bounds" transform="matrix(1,0,0,1,0.2400000000000091,-0.09999999999999432)"><svg viewBox="0 0 395.52 247.2" height="247.2" width="395.52"><g><svg></svg></g><g><svg viewBox="0 0 395.52 247.2" height="247.2" width="395.52"><g transform="matrix(1,0,0,1,75.54432,97.5111815695067)"><svg viewBox="0 0 244.43135999999998 52.17763686098657" height="52.17763686098657" width="244.43135999999998"><g><svg viewBox="0 0 244.43135999999998 52.17763686098657" height="52.17763686098657" width="244.43135999999998"><g><svg viewBox="0 0 244.43135999999998 52.17763686098657" height="52.17763686098657" width="244.43135999999998"><g><svg viewBox="0 0 244.43135999999998 52.17763686098657" height="52.17763686098657" width="244.43135999999998"><g id="textblocktransform"><svg viewBox="0 0 244.43135999999998 52.17763686098657" height="52.17763686098657" width="244.43135999999998" id="textblock"><g><svg viewBox="0 0 244.43135999999998 30.59765015083122" height="30.59765015083122" width="244.43135999999998"><g transform="matrix(1,0,0,1,0,0)"><svg width="244.43135999999998" viewBox="2.9000000953674316 -43.650001525878906 454.1199951171875 56.85000228881836" height="30.59765015083122" data-palette-color="#6b7280"><path d="M25.65-40.3Q28.55-40.3 32.43-39.55 36.3-38.8 38.1-37.95L38.1-37.95 38.1-27.3 33.35-27.3Q29.5-34.55 22.75-34.55L22.75-34.55Q20-34.55 17.7-32.8 15.4-31.05 14.08-28 12.75-24.95 12.75-21.15L12.75-21.15Q12.75-16.85 14.08-13.28 15.4-9.7 18.1-7.58 20.8-5.45 24.8-5.45L24.8-5.45Q29.35-5.45 37.75-10.45L37.75-10.45 39.75-7.25 30.55-0.1Q28.35 0.55 26.33 0.78 24.3 1 22 1L22 1Q16.4 1 12.05-1.55 7.7-4.1 5.3-8.58 2.9-13.05 2.9-18.75L2.9-18.75Q2.9-24.6 6.5-29.58 10.1-34.55 15.45-37.43 20.8-40.3 25.65-40.3L25.65-40.3ZM61.05-27.45Q64.75-27.45 67.65-25.73 70.55-24 72.17-21 73.8-18 73.8-14.35L73.8-14.35Q73.8-10.4 71.25-6.98 68.7-3.55 64.87-1.53 61.05 0.5 57.5 0.5L57.5 0.5Q53.85 0.5 50.92-1.23 48-2.95 46.37-5.95 44.75-8.95 44.75-12.6L44.75-12.6Q44.75-16.55 47.3-19.98 49.85-23.4 53.67-25.43 57.5-27.45 61.05-27.45L61.05-27.45ZM58.15-21.65Q56.05-21.65 54.97-19.98 53.9-18.3 53.9-15L53.9-15Q53.9-10.8 55.6-8.03 57.3-5.25 60.4-5.25L60.4-5.25Q62.45-5.25 63.52-6.98 64.6-8.7 64.6-12L64.6-12Q64.6-16.2 62.9-18.93 61.2-21.65 58.15-21.65L58.15-21.65ZM94.95-3.25L93.3 0 77.5 0 77.5-2.8 81.95-6.55 81.95-33.9 77.5-36.85 77.5-39.65 87.3-43.65 90.45-43.65 90.45-4.75 94.95-3.25ZM114.34-3.25L112.69 0 96.89 0 96.89-2.8 101.34-6.55 101.34-33.9 96.89-36.85 96.89-39.65 106.69-43.65 109.84-43.65 109.84-4.75 114.34-3.25ZM134.34-27.45Q139.59-27.45 142.47-23.45 145.34-19.45 145.24-12.35L145.24-12.35 127.24-12.35Q127.74-9.3 129.39-7.48 131.04-5.65 133.69-5.65L133.69-5.65Q137.19-5.65 143.74-9.15L143.74-9.15 145.24-6.3 137.64-0.25Q134.69 0.5 130.79 0.5L130.79 0.5Q127.14 0.5 124.22-1.23 121.29-2.95 119.67-5.95 118.04-8.95 118.04-12.6L118.04-12.6Q118.04-16.55 120.59-19.98 123.14-23.4 126.97-25.43 130.79-27.45 134.34-27.45L134.34-27.45ZM131.59-21.65Q129.39-21.65 128.29-20.18 127.19-18.7 127.09-15.65L127.09-15.65 136.64-15.65Q136.24-18.75 135.17-20.2 134.09-21.65 131.54-21.65L131.54-21.65 131.59-21.65ZM179.99-22.1L174.84-22.1Q175.69-20.5 175.69-18.7L175.69-18.7Q175.69-15.65 173.11-12.83 170.54-10 166.74-8.55L166.74-8.55Q165.44-7.05 165.44-5.55L165.44-5.55Q165.44-4.85 166.54-4.17 167.64-3.5 169.99-2.45L169.99-2.45Q173.44-0.95 175.29 0.33 177.14 1.6 177.14 3.3L177.14 3.3Q177.14 4.9 175.14 7.28 173.14 9.65 170.16 11.43 167.19 13.2 164.39 13.2L164.39 13.2Q161.34 13.2 157.14 12.25 152.94 11.3 150.14 10.35L150.14 10.35 150.14 1.4 153.29 1.4Q155.74 4.7 158.26 6.43 160.79 8.15 163.99 8.15L163.99 8.15Q165.64 8.15 166.76 7.43 167.89 6.7 167.89 5.9L167.89 5.9Q167.89 4.75 166.56 3.88 165.24 3 162.49 1.75L162.49 1.75Q159.54 0.45 158.04-0.58 156.54-1.6 156.54-2.95L156.54-2.95Q156.54-4.15 158.36-5.4 160.19-6.65 162.74-7.6L162.74-7.6Q161.74-7.5 161.24-7.5L161.24-7.5Q158.19-7.5 155.66-8.7 153.14-9.9 151.69-11.93 150.24-13.95 150.24-16.25L150.24-16.25Q150.24-19.1 152.34-21.7 154.44-24.3 157.79-25.88 161.14-27.45 164.64-27.45L164.64-27.45Q168.64-27.45 171.69-25.45L171.69-25.45 179.94-25.45 179.99-22.1ZM164.19-13.2Q165.79-13.2 166.66-13.98 167.54-14.75 167.54-16.3L167.54-16.3Q167.54-18.75 165.96-20.18 164.39-21.6 161.79-21.6L161.79-21.6Q158.49-21.6 158.49-18.65L158.49-18.65Q158.49-16.25 160.06-14.73 161.64-13.2 164.19-13.2L164.19-13.2ZM198.99-27.45Q204.24-27.45 207.11-23.45 209.99-19.45 209.89-12.35L209.89-12.35 191.89-12.35Q192.39-9.3 194.04-7.48 195.69-5.65 198.34-5.65L198.34-5.65Q201.84-5.65 208.39-9.15L208.39-9.15 209.89-6.3 202.29-0.25Q199.34 0.5 195.44 0.5L195.44 0.5Q191.79 0.5 188.86-1.23 185.94-2.95 184.31-5.95 182.69-8.95 182.69-12.6L182.69-12.6Q182.69-16.55 185.24-19.98 187.79-23.4 191.61-25.43 195.44-27.45 198.99-27.45L198.99-27.45ZM196.24-21.65Q194.04-21.65 192.94-20.18 191.84-18.7 191.74-15.65L191.74-15.65 201.29-15.65Q200.89-18.75 199.81-20.2 198.74-21.65 196.19-21.65L196.19-21.65 196.24-21.65ZM238.48-40.3Q241.38-40.3 245.26-39.55 249.13-38.8 250.93-37.95L250.93-37.95 250.93-27.3 246.18-27.3Q242.33-34.55 235.58-34.55L235.58-34.55Q232.83-34.55 230.53-32.8 228.23-31.05 226.91-28 225.58-24.95 225.58-21.15L225.58-21.15Q225.58-16.85 226.91-13.28 228.23-9.7 230.93-7.58 233.63-5.45 237.63-5.45L237.63-5.45Q242.18-5.45 250.58-10.45L250.58-10.45 252.58-7.25 243.38-0.1Q241.18 0.55 239.16 0.78 237.13 1 234.83 1L234.83 1Q229.23 1 224.88-1.55 220.53-4.1 218.13-8.58 215.73-13.05 215.73-18.75L215.73-18.75Q215.73-24.6 219.33-29.58 222.93-34.55 228.28-37.43 233.63-40.3 238.48-40.3L238.48-40.3ZM287.28-3.25L285.68 0 274.28 0 274.28-4.35 268.63 0.1Q267.63 0.5 266.13 0.5L266.13 0.5Q261.33 0.5 259.21-1.85 257.08-4.2 257.08-7.5L257.08-7.5Q257.08-9.45 258.28-11.33 259.48-13.2 261.73-14.8L261.73-14.8 274.28-14.8 274.28-15.65Q274.28-18.4 272.78-19.7 271.28-21 268.78-21L268.78-21Q265.28-21 259.63-18.25L259.63-18.25 258.13-21.1 265.08-26.7Q267.63-27.45 271.03-27.45L271.03-27.45Q276.63-27.45 279.71-24.9 282.78-22.35 282.78-17.5L282.78-17.5 282.78-5 287.28-3.25ZM268.68-6.2Q271.23-6.2 274.28-8.3L274.28-8.3 274.28-11.5 266.23-11.5Q265.83-10.9 265.66-10.38 265.48-9.85 265.48-9.2L265.48-9.2Q265.48-7.95 266.36-7.1 267.23-6.25 268.68-6.25L268.68-6.25 268.68-6.2ZM306.63-20.35Q304.83-20.35 303.03-18.75L303.03-18.75 303.03-5.25 310.63-3.25 309.03 0 290.08 0 290.08-2.8 294.53-6.55 294.53-17.9 290.08-20.7 290.08-23.5 300.48-27.9 302.38-22.35 306.93-27.05Q307.98-27.45 309.38-27.45L309.38-27.45Q311.98-27.45 313.85-26.25 315.73-25.05 316.48-22.95L316.48-22.95 311.68-16.95 308.53-16.95Q308.48-18.75 308.03-19.53 307.58-20.3 306.63-20.3L306.63-20.3 306.63-20.35ZM352.98-3.25L351.33 0 339.98 0 339.98-16Q339.98-18.35 339.25-19.33 338.53-20.3 336.73-20.3L336.73-20.3Q334.08-20.3 331.48-18.6L331.48-18.6 331.48-4.75 335.98-3.25 334.33 0 318.53 0 318.53-2.8 322.98-6.55 322.98-17.9 318.53-20.7 318.53-23.5 328.93-27.9 330.88-22.1 337.08-27.05Q338.43-27.45 340.13-27.45L340.13-27.45Q343.93-27.45 346.2-25.38 348.48-23.3 348.48-19.75L348.48-19.75 348.48-4.75 352.98-3.25ZM373.17-3.25L371.52 0 355.72 0 355.72-2.8 360.17-6.55 360.17-18.15 355.72-21.1 355.72-23.9 365.52-27.9 368.67-27.9 368.67-4.75 373.17-3.25ZM364.37-42.95Q366.52-42.95 367.9-41.58 369.27-40.2 369.27-38.15L369.27-38.15Q369.27-36.7 368.27-35.45 367.27-34.2 365.77-33.45 364.27-32.7 362.87-32.7L362.87-32.7Q360.77-32.7 359.4-34.08 358.02-35.45 358.02-37.5L358.02-37.5Q358.02-38.95 359.02-40.2 360.02-41.45 361.5-42.2 362.97-42.95 364.37-42.95L364.37-42.95ZM405.17-26.95L405.17-24.15 392.37 0 386.07 0 378.62-18.1 373.77-20.9 373.77-23.7 384.82-27.9 386.72-20.35 392.17-7.05 398.22-18.85 391.07-23.7 392.67-26.95 405.17-26.95ZM437.77-3.25L436.17 0 424.77 0 424.77-4.35 419.12 0.1Q418.12 0.5 416.62 0.5L416.62 0.5Q411.82 0.5 409.69-1.85 407.57-4.2 407.57-7.5L407.57-7.5Q407.57-9.45 408.77-11.33 409.97-13.2 412.22-14.8L412.22-14.8 424.77-14.8 424.77-15.65Q424.77-18.4 423.27-19.7 421.77-21 419.27-21L419.27-21Q415.77-21 410.12-18.25L410.12-18.25 408.62-21.1 415.57-26.7Q418.12-27.45 421.52-27.45L421.52-27.45Q427.12-27.45 430.19-24.9 433.27-22.35 433.27-17.5L433.27-17.5 433.27-5 437.77-3.25ZM419.17-6.2Q421.72-6.2 424.77-8.3L424.77-8.3 424.77-11.5 416.72-11.5Q416.32-10.9 416.14-10.38 415.97-9.85 415.97-9.2L415.97-9.2Q415.97-7.95 416.84-7.1 417.72-6.25 419.17-6.25L419.17-6.25 419.17-6.2ZM457.02-3.25L455.37 0 439.56 0 439.56-2.8 444.02-6.55 444.02-33.9 439.56-36.85 439.56-39.65 449.37-43.65 452.52-43.65 452.52-4.75 457.02-3.25Z" opacity="1" transform="matrix(1,0,0,1,0,0)" fill="#6b7280" class="undefined-text-0" data-fill-palette-color="primary" id="text-0"></path></svg></g></svg></g><g transform="matrix(1,0,0,1,0,37.82102100783885)"><svg viewBox="0 0 244.43135999999998 14.356615853147714" height="14.356615853147714" width="244.43135999999998"><g transform="matrix(1,0,0,1,0,0)"><svg width="244.43135999999998" viewBox="3.25 -36.54999923706055 792.5999755859375 46.55999755859375" height="14.356615853147714" data-palette-color="#6b7280"><path d="M31.25-10.5L31.25-10.5Q31.25-8.33 30.42-6.42 29.59-4.52 28.16-3.09 26.73-1.66 24.83-0.83 22.92 0 20.75 0L20.75 0 3.25 0 3.25-35.01 20.75-35.01Q22.92-35.01 24.83-34.18 26.73-33.35 28.16-31.92 29.59-30.49 30.42-28.59 31.25-26.68 31.25-24.51L31.25-24.51Q31.25-23.54 30.98-22.51 30.71-21.48 30.22-20.53 29.74-19.58 29.05-18.8 28.37-18.02 27.54-17.5L27.54-17.5Q28.39-17.04 29.08-16.25 29.76-15.45 30.25-14.5 30.74-13.55 30.99-12.51 31.25-11.47 31.25-10.5ZM10.25-13.99L10.25-7.01 20.75-7.01Q21.48-7.01 22.12-7.28 22.75-7.54 23.23-8.02 23.71-8.5 23.97-9.13 24.24-9.77 24.24-10.5L24.24-10.5Q24.24-11.23 23.97-11.87 23.71-12.5 23.23-12.98 22.75-13.45 22.12-13.72 21.48-13.99 20.75-13.99L20.75-13.99 10.25-13.99ZM10.25-28L10.25-21 20.75-21Q21.48-21 22.12-21.26 22.75-21.53 23.23-22.01 23.71-22.49 23.97-23.13 24.24-23.78 24.24-24.51L24.24-24.51Q24.24-25.24 23.97-25.88 23.71-26.51 23.23-26.99 22.75-27.47 22.12-27.73 21.48-28 20.75-28L20.75-28 10.25-28ZM45.55 10.01L42.14 9.96 42.14 3.25 45.85 3.3Q46.82 3.3 47.73 2.98 48.63 2.66 49.4 2.1 50.17 1.54 50.75 0.77 51.34 0 51.71-0.9L51.71-0.9Q50.61-0.44 49.47 0.02 48.34 0.49 47.19 0.49L47.19 0.49Q44.77 0.49 42.65-0.37 40.52-1.22 38.93-2.8 37.33-4.37 36.41-6.63 35.5-8.89 35.5-11.69L35.5-11.69 35.5-26.15 42.14-26.15 42.14-11.69Q42.14-10.3 42.54-9.27 42.94-8.23 43.63-7.53 44.31-6.84 45.22-6.49 46.14-6.15 47.19-6.15L47.19-6.15Q48.22-6.15 49.13-6.63 50.05-7.1 50.73-7.89 51.41-8.67 51.8-9.66 52.19-10.64 52.19-11.69L52.19-11.69 52.19-26.15 58.91-26.15 58.91-3.3Q58.88-0.54 57.83 1.88 56.78 4.3 54.97 6.1 53.15 7.91 50.73 8.96 48.31 10.01 45.55 10.01L45.55 10.01ZM93.38-28L93.38 0 86.39 0 86.39-28 75.87-28 75.87-35.01 103.87-35.01 103.87-28 93.38-28ZM113.54-14.94L113.54 0 106.87 0 106.87-36.55 113.54-36.55 113.54-25Q114.74-25.9 116.01-26.28 117.28-26.66 118.59-26.66L118.59-26.66Q121.01-26.66 123.13-25.74 125.26-24.83 126.83-23.23 128.41-21.63 129.32-19.49 130.24-17.36 130.24-14.94L130.24-14.94 130.24 0 123.53 0 123.53-14.94 123.57-14.94Q123.57-15.97 123.18-16.88 122.79-17.8 122.11-18.48 121.43-19.17 120.52-19.56 119.62-19.95 118.59-19.95L118.59-19.95Q117.54-19.95 116.62-19.56 115.69-19.17 115-18.48 114.32-17.8 113.93-16.88 113.54-15.97 113.54-14.94L113.54-14.94ZM157.87-21.46L145.37-6.4Q145.76-6.27 146.15-6.24 146.55-6.2 146.94-6.2L146.94-6.2Q147.91-6.2 148.82-6.47 149.72-6.74 150.51-7.24 151.31-7.74 151.93-8.46 152.55-9.18 152.94-10.06L152.94-10.06 157.82-5.15Q156.9-3.83 155.69-2.78 154.48-1.73 153.08-1 151.67-0.27 150.12 0.11 148.57 0.49 146.94 0.49L146.94 0.49Q144.18 0.49 141.75-0.54 139.32-1.56 137.5-3.39 135.68-5.22 134.63-7.75 133.58-10.28 133.58-13.31L133.58-13.31Q133.58-16.41 134.63-18.97 135.68-21.53 137.5-23.34 139.32-25.15 141.75-26.15 144.18-27.15 146.94-27.15L146.94-27.15Q148.57-27.15 150.13-26.76 151.7-26.37 153.1-25.63 154.5-24.9 155.72-23.84 156.95-22.78 157.87-21.46L157.87-21.46ZM141.03-9.84L148.79-20.14Q148.33-20.31 147.88-20.36 147.42-20.41 146.94-20.41L146.94-20.41Q145.57-20.41 144.36-19.91 143.15-19.41 142.26-18.48 141.37-17.55 140.86-16.25 140.34-14.94 140.34-13.31L140.34-13.31Q140.34-12.94 140.38-12.48 140.42-12.01 140.5-11.54 140.59-11.06 140.71-10.62 140.83-10.18 141.03-9.84L141.03-9.84ZM173.86-24.51L173.86-24.51Q173.86-26.68 174.69-28.59 175.52-30.49 176.95-31.92 178.38-33.35 180.28-34.18 182.18-35.01 184.36-35.01L184.36-35.01 200.42-35.01 200.42-28 184.36-28Q183.63-28 182.99-27.73 182.36-27.47 181.88-26.99 181.4-26.51 181.13-25.88 180.87-25.24 180.87-24.51L180.87-24.51Q180.87-23.78 181.13-23.13 181.4-22.49 181.88-22.01 182.36-21.53 182.99-21.26 183.63-21 184.36-21L184.36-21 191.36-21Q193.54-21 195.45-20.18 197.37-19.36 198.8-17.93 200.23-16.5 201.04-14.59 201.86-12.67 201.86-10.5L201.86-10.5Q201.86-8.33 201.04-6.42 200.23-4.52 198.8-3.09 197.37-1.66 195.45-0.83 193.54 0 191.36 0L191.36 0 175.81 0 175.81-7.01 191.36-7.01Q192.1-7.01 192.73-7.28 193.37-7.54 193.84-8.02 194.32-8.5 194.59-9.13 194.86-9.77 194.86-10.5L194.86-10.5Q194.86-11.23 194.59-11.87 194.32-12.5 193.84-12.98 193.37-13.45 192.73-13.72 192.1-13.99 191.36-13.99L191.36-13.99 184.36-13.99Q182.18-13.99 180.28-14.82 178.38-15.65 176.95-17.08 175.52-18.51 174.69-20.42 173.86-22.34 173.86-24.51ZM223.47 0L218.41 0Q216 0 213.87-0.92 211.75-1.83 210.15-3.43 208.55-5.03 207.63-7.15 206.72-9.28 206.72-11.69L206.72-11.69 206.72-19.46 203.47-19.46 203.47-26.1 206.72-26.1 206.72-36.55 213.36-36.55 213.36-26.1 223.47-26.1 223.47-19.46 213.36-19.46 213.36-11.69Q213.36-10.64 213.75-9.73 214.14-8.81 214.82-8.13 215.51-7.45 216.44-7.04 217.36-6.64 218.41-6.64L218.41-6.64 223.47-6.64 223.47 0ZM248.61 0L246.41-3.05Q245.61-2.32 244.69-1.67 243.78-1.03 242.78-0.55 241.77-0.07 240.71 0.21 239.65 0.49 238.55 0.49L238.55 0.49Q236.13 0.49 234.01-0.37 231.89-1.22 230.29-2.8 228.69-4.37 227.77-6.63 226.86-8.89 226.86-11.69L226.86-11.69 226.86-26.15 233.5-26.15 233.5-11.69Q233.5-10.38 233.9-9.34 234.3-8.3 234.99-7.59 235.67-6.88 236.59-6.52 237.5-6.15 238.55-6.15L238.55-6.15Q239.58-6.15 240.49-6.63 241.41-7.1 242.09-7.89 242.78-8.67 243.17-9.66 243.56-10.64 243.56-11.69L243.56-11.69 243.56-26.15 250.22-26.15 250.22 0 248.61 0ZM280.57-36.55L280.57 0 278.95 0 276.37-3.59Q275.41-2.73 274.35-1.99 273.29-1.25 272.12-0.7 270.95-0.15 269.71 0.17 268.48 0.49 267.21 0.49L267.21 0.49Q264.45 0.49 262.02-0.55 259.59-1.59 257.78-3.43 255.96-5.27 254.91-7.8 253.86-10.33 253.86-13.31L253.86-13.31Q253.86-16.26 254.91-18.8 255.96-21.34 257.78-23.19 259.59-25.05 262.02-26.1 264.45-27.15 267.21-27.15L267.21-27.15Q268.09-27.15 269.03-27 269.97-26.86 270.86-26.53 271.75-26.2 272.53-25.66 273.31-25.12 273.85-24.34L273.85-24.34 273.85-36.55 280.57-36.55ZM273.85-13.31L273.85-13.31Q273.85-14.67 273.33-15.95 272.8-17.24 271.9-18.23 271-19.21 269.79-19.81 268.58-20.41 267.21-20.41L267.21-20.41Q265.84-20.41 264.64-19.92 263.43-19.43 262.54-18.52 261.64-17.6 261.13-16.28 260.62-14.97 260.62-13.31L260.62-13.31Q260.62-11.87 261.13-10.57 261.64-9.28 262.54-8.3 263.43-7.32 264.64-6.76 265.84-6.2 267.21-6.2L267.21-6.2Q268.58-6.2 269.79-6.8 271-7.4 271.9-8.39 272.8-9.38 273.33-10.66 273.85-11.94 273.85-13.31ZM308.54-21.46L296.04-6.4Q296.43-6.27 296.82-6.24 297.21-6.2 297.6-6.2L297.6-6.2Q298.58-6.2 299.48-6.47 300.39-6.74 301.18-7.24 301.97-7.74 302.6-8.46 303.22-9.18 303.61-10.06L303.61-10.06 308.49-5.15Q307.57-3.83 306.36-2.78 305.15-1.73 303.74-1 302.34-0.27 300.79 0.11 299.24 0.49 297.6 0.49L297.6 0.49Q294.85 0.49 292.42-0.54 289.99-1.56 288.17-3.39 286.35-5.22 285.3-7.75 284.25-10.28 284.25-13.31L284.25-13.31Q284.25-16.41 285.3-18.97 286.35-21.53 288.17-23.34 289.99-25.15 292.42-26.15 294.85-27.15 297.6-27.15L297.6-27.15Q299.24-27.15 300.8-26.76 302.37-26.37 303.77-25.63 305.17-24.9 306.39-23.84 307.61-22.78 308.54-21.46L308.54-21.46ZM291.7-9.84L299.46-20.14Q299-20.31 298.54-20.36 298.09-20.41 297.6-20.41L297.6-20.41Q296.24-20.41 295.03-19.91 293.82-19.41 292.93-18.48 292.04-17.55 291.53-16.25 291.01-14.94 291.01-13.31L291.01-13.31Q291.01-12.94 291.05-12.48 291.09-12.01 291.17-11.54 291.26-11.06 291.38-10.62 291.5-10.18 291.7-9.84L291.7-9.84ZM318.55-14.94L318.55 0 311.88 0 311.88-26.15 313.5-26.15 315.69-23.61Q317.3-25.07 319.34-25.87 321.38-26.66 323.6-26.66L323.6-26.66Q326-26.66 328.12-25.74 330.24-24.83 331.83-23.23 333.42-21.63 334.33-19.49 335.25-17.36 335.25-14.94L335.25-14.94 335.25 0 328.58 0 328.58-14.94Q328.58-15.97 328.19-16.88 327.8-17.8 327.12-18.48 326.43-19.17 325.53-19.56 324.63-19.95 323.6-19.95L323.6-19.95Q322.55-19.95 321.63-19.56 320.7-19.17 320.01-18.48 319.33-17.8 318.94-16.88 318.55-15.97 318.55-14.94L318.55-14.94ZM357.8 0L352.75 0Q350.33 0 348.21-0.92 346.09-1.83 344.49-3.43 342.89-5.03 341.97-7.15 341.06-9.28 341.06-11.69L341.06-11.69 341.06-19.46 337.81-19.46 337.81-26.1 341.06-26.1 341.06-36.55 347.7-36.55 347.7-26.1 357.8-26.1 357.8-19.46 347.7-19.46 347.7-11.69Q347.7-10.64 348.09-9.73 348.48-8.81 349.16-8.13 349.85-7.45 350.77-7.04 351.7-6.64 352.75-6.64L352.75-6.64 357.8-6.64 357.8 0ZM375.89 0L375.89 0 360.66 0 360.66-6.64 375.89-6.64Q376.58-6.64 377.06-7.13 377.55-7.62 377.55-8.3L377.55-8.3Q377.55-9.01 377.06-9.23 376.58-9.45 375.89-9.45L375.89-9.45 368.96-9.45Q367.23-9.45 365.71-10.11 364.2-10.77 363.08-11.9 361.95-13.04 361.31-14.55 360.66-16.06 360.66-17.8L360.66-17.8Q360.66-19.53 361.31-21.04 361.95-22.56 363.08-23.68 364.2-24.8 365.71-25.45 367.23-26.1 368.96-26.1L368.96-26.1 382.46-26.1 382.46-19.46 368.96-19.46Q368.28-19.46 367.79-18.97 367.3-18.48 367.3-17.8L367.3-17.8Q367.3-17.09 367.79-16.59 368.28-16.09 368.96-16.09L368.96-16.09 375.89-16.09Q377.6-16.09 379.12-15.52 380.63-14.94 381.75-13.92 382.88-12.89 383.53-11.45 384.19-10.01 384.19-8.3L384.19-8.3Q384.19-6.57 383.53-5.07 382.88-3.56 381.75-2.43 380.63-1.29 379.12-0.65 377.6 0 375.89 0ZM395.93-2.49L395.93-2.49Q395.93-1.42 395.73-0.18 395.52 1.05 395.07 2.26 394.62 3.47 393.9 4.55 393.18 5.64 392.15 6.4L392.15 6.4 389.49 4.54Q390.17 3.76 390.51 3.06 390.86 2.37 391.05 1.66L391.05 1.66Q390.32 1.51 389.68 1.15 389.05 0.78 388.59 0.23 388.12-0.32 387.85-1.01 387.58-1.71 387.58-2.49L387.58-2.49Q387.58-3.34 387.91-4.1 388.24-4.86 388.82-5.42 389.39-5.98 390.14-6.31 390.88-6.64 391.73-6.64L391.73-6.64Q392.61-6.64 393.38-6.31 394.15-5.98 394.73-5.42 395.3-4.86 395.62-4.1 395.93-3.34 395.93-2.49ZM408.65-13.99L408.65 0 401.64 0 401.64-35.01 426.16-35.01 426.16-28 408.65-28 408.65-21 419.15-21 419.15-13.99 408.65-13.99ZM451.25-13.31L451.25-13.31Q451.25-10.38 450.2-7.85 449.15-5.32 447.35-3.48 445.54-1.64 443.11-0.57 440.68 0.49 437.9 0.49L437.9 0.49Q435.14 0.49 432.71-0.57 430.28-1.64 428.46-3.48 426.64-5.32 425.59-7.85 424.54-10.38 424.54-13.31L424.54-13.31Q424.54-16.28 425.59-18.82 426.64-21.36 428.46-23.21 430.28-25.05 432.71-26.1 435.14-27.15 437.9-27.15L437.9-27.15Q440.68-27.15 443.11-26.16 445.54-25.17 447.35-23.35 449.15-21.53 450.2-18.98 451.25-16.43 451.25-13.31ZM444.54-13.31L444.54-13.31Q444.54-14.92 444.01-16.22 443.49-17.53 442.58-18.47 441.68-19.41 440.47-19.91 439.26-20.41 437.9-20.41L437.9-20.41Q436.53-20.41 435.32-19.91 434.11-19.41 433.22-18.47 432.33-17.53 431.82-16.22 431.31-14.92 431.31-13.31L431.31-13.31Q431.31-11.79 431.82-10.5 432.33-9.2 433.22-8.25 434.11-7.3 435.32-6.75 436.53-6.2 437.9-6.2L437.9-6.2Q439.26-6.2 440.47-6.71 441.68-7.23 442.58-8.15 443.49-9.08 444.01-10.4 444.54-11.72 444.54-13.31ZM461.6-14.4L461.6 0 454.94 0 454.94-26.15 456.55-26.15 458.74-23.05Q460.36-24.51 462.41-25.31 464.46-26.1 466.65-26.1L466.65-26.1 472.54-26.1 472.54-19.46 466.65-19.46Q465.6-19.46 464.68-19.07 463.75-18.68 463.07-17.99 462.38-17.31 461.99-16.38 461.6-15.45 461.6-14.4L461.6-14.4ZM505.03-28L505.03 0 498.05 0 498.05-28 487.52-28 487.52-35.01 515.53-35.01 515.53-28 505.03-28ZM525.19-14.94L525.19 0 518.53 0 518.53-36.55 525.19-36.55 525.19-25Q526.39-25.9 527.66-26.28 528.93-26.66 530.25-26.66L530.25-26.66Q532.66-26.66 534.79-25.74 536.91-24.83 538.49-23.23 540.06-21.63 540.98-19.49 541.89-17.36 541.89-14.94L541.89-14.94 541.89 0 535.18 0 535.18-14.94 535.23-14.94Q535.23-15.97 534.84-16.88 534.44-17.8 533.76-18.48 533.08-19.17 532.17-19.56 531.27-19.95 530.25-19.95L530.25-19.95Q529.2-19.95 528.27-19.56 527.34-19.17 526.66-18.48 525.97-17.8 525.58-16.88 525.19-15.97 525.19-14.94L525.19-14.94ZM569.53-21.46L557.03-6.4Q557.42-6.27 557.81-6.24 558.2-6.2 558.59-6.2L558.59-6.2Q559.56-6.2 560.47-6.47 561.37-6.74 562.16-7.24 562.96-7.74 563.58-8.46 564.2-9.18 564.59-10.06L564.59-10.06 569.48-5.15Q568.55-3.83 567.34-2.78 566.13-1.73 564.73-1 563.32-0.27 561.77 0.11 560.22 0.49 558.59 0.49L558.59 0.49Q555.83 0.49 553.4-0.54 550.97-1.56 549.15-3.39 547.33-5.22 546.28-7.75 545.23-10.28 545.23-13.31L545.23-13.31Q545.23-16.41 546.28-18.97 547.33-21.53 549.15-23.34 550.97-25.15 553.4-26.15 555.83-27.15 558.59-27.15L558.59-27.15Q560.22-27.15 561.79-26.76 563.35-26.37 564.75-25.63 566.16-24.9 567.38-23.84 568.6-22.78 569.53-21.46L569.53-21.46ZM552.68-9.84L560.44-20.14Q559.98-20.31 559.53-20.36 559.08-20.41 558.59-20.41L558.59-20.41Q557.22-20.41 556.01-19.91 554.8-19.41 553.91-18.48 553.02-17.55 552.51-16.25 552-14.94 552-13.31L552-13.31Q552-12.94 552.03-12.48 552.07-12.01 552.15-11.54 552.24-11.06 552.36-10.62 552.48-10.18 552.68-9.84L552.68-9.84ZM585.51-24.51L585.51-24.51Q585.51-26.68 586.34-28.59 587.17-30.49 588.6-31.92 590.03-33.35 591.93-34.18 593.84-35.01 596.01-35.01L596.01-35.01 612.07-35.01 612.07-28 596.01-28Q595.28-28 594.64-27.73 594.01-27.47 593.53-26.99 593.06-26.51 592.79-25.88 592.52-25.24 592.52-24.51L592.52-24.51Q592.52-23.78 592.79-23.13 593.06-22.49 593.53-22.01 594.01-21.53 594.64-21.26 595.28-21 596.01-21L596.01-21 603.02-21Q605.19-21 607.11-20.18 609.02-19.36 610.45-17.93 611.88-16.5 612.7-14.59 613.51-12.67 613.51-10.5L613.51-10.5Q613.51-8.33 612.7-6.42 611.88-4.52 610.45-3.09 609.02-1.66 607.11-0.83 605.19 0 603.02 0L603.02 0 587.46 0 587.46-7.01 603.02-7.01Q603.75-7.01 604.38-7.28 605.02-7.54 605.49-8.02 605.97-8.5 606.24-9.13 606.51-9.77 606.51-10.5L606.51-10.5Q606.51-11.23 606.24-11.87 605.97-12.5 605.49-12.98 605.02-13.45 604.38-13.72 603.75-13.99 603.02-13.99L603.02-13.99 596.01-13.99Q593.84-13.99 591.93-14.82 590.03-15.65 588.6-17.08 587.17-18.51 586.34-20.42 585.51-22.34 585.51-24.51ZM635.12 0L630.06 0Q627.65 0 625.52-0.92 623.4-1.83 621.8-3.43 620.2-5.03 619.29-7.15 618.37-9.28 618.37-11.69L618.37-11.69 618.37-19.46 615.12-19.46 615.12-26.1 618.37-26.1 618.37-36.55 625.01-36.55 625.01-26.1 635.12-26.1 635.12-19.46 625.01-19.46 625.01-11.69Q625.01-10.64 625.4-9.73 625.79-8.81 626.48-8.13 627.16-7.45 628.09-7.04 629.01-6.64 630.06-6.64L630.06-6.64 635.12-6.64 635.12 0ZM660.26 0L658.06-3.05Q657.26-2.32 656.34-1.67 655.43-1.03 654.43-0.55 653.43-0.07 652.36 0.21 651.3 0.49 650.2 0.49L650.2 0.49Q647.79 0.49 645.66-0.37 643.54-1.22 641.94-2.8 640.34-4.37 639.42-6.63 638.51-8.89 638.51-11.69L638.51-11.69 638.51-26.15 645.15-26.15 645.15-11.69Q645.15-10.38 645.55-9.34 645.96-8.3 646.64-7.59 647.32-6.88 648.24-6.52 649.15-6.15 650.2-6.15L650.2-6.15Q651.23-6.15 652.14-6.63 653.06-7.1 653.74-7.89 654.43-8.67 654.82-9.66 655.21-10.64 655.21-11.69L655.21-11.69 655.21-26.15 661.87-26.15 661.87 0 660.26 0ZM692.22-36.55L692.22 0 690.61 0 688.02-3.59Q687.07-2.73 686-1.99 684.94-1.25 683.77-0.7 682.6-0.15 681.37 0.17 680.13 0.49 678.86 0.49L678.86 0.49Q676.1 0.49 673.68-0.55 671.25-1.59 669.43-3.43 667.61-5.27 666.56-7.8 665.51-10.33 665.51-13.31L665.51-13.31Q665.51-16.26 666.56-18.8 667.61-21.34 669.43-23.19 671.25-25.05 673.68-26.1 676.1-27.15 678.86-27.15L678.86-27.15Q679.74-27.15 680.68-27 681.62-26.86 682.51-26.53 683.4-26.2 684.19-25.66 684.97-25.12 685.5-24.34L685.5-24.34 685.5-36.55 692.22-36.55ZM685.5-13.31L685.5-13.31Q685.5-14.67 684.98-15.95 684.45-17.24 683.55-18.23 682.65-19.21 681.44-19.81 680.23-20.41 678.86-20.41L678.86-20.41Q677.5-20.41 676.29-19.92 675.08-19.43 674.19-18.52 673.3-17.6 672.78-16.28 672.27-14.97 672.27-13.31L672.27-13.31Q672.27-11.87 672.78-10.57 673.3-9.28 674.19-8.3 675.08-7.32 676.29-6.76 677.5-6.2 678.86-6.2L678.86-6.2Q680.23-6.2 681.44-6.8 682.65-7.4 683.55-8.39 684.45-9.38 684.98-10.66 685.5-11.94 685.5-13.31ZM720.19-21.46L707.69-6.4Q708.08-6.27 708.47-6.24 708.87-6.2 709.26-6.2L709.26-6.2Q710.23-6.2 711.14-6.47 712.04-6.74 712.83-7.24 713.63-7.74 714.25-8.46 714.87-9.18 715.26-10.06L715.26-10.06 720.14-5.15Q719.22-3.83 718.01-2.78 716.8-1.73 715.4-1 713.99-0.27 712.44 0.11 710.89 0.49 709.26 0.49L709.26 0.49Q706.5 0.49 704.07-0.54 701.64-1.56 699.82-3.39 698-5.22 696.95-7.75 695.9-10.28 695.9-13.31L695.9-13.31Q695.9-16.41 696.95-18.97 698-21.53 699.82-23.34 701.64-25.15 704.07-26.15 706.5-27.15 709.26-27.15L709.26-27.15Q710.89-27.15 712.45-26.76 714.02-26.37 715.42-25.63 716.82-24.9 718.05-23.84 719.27-22.78 720.19-21.46L720.19-21.46ZM703.35-9.84L711.11-20.14Q710.65-20.31 710.2-20.36 709.74-20.41 709.26-20.41L709.26-20.41Q707.89-20.41 706.68-19.91 705.47-19.41 704.58-18.48 703.69-17.55 703.18-16.25 702.66-14.94 702.66-13.31L702.66-13.31Q702.66-12.94 702.7-12.48 702.74-12.01 702.82-11.54 702.91-11.06 703.03-10.62 703.15-10.18 703.35-9.84L703.35-9.84ZM730.2-14.94L730.2 0 723.54 0 723.54-26.15 725.15-26.15 727.34-23.61Q728.96-25.07 730.99-25.87 733.03-26.66 735.25-26.66L735.25-26.66Q737.65-26.66 739.77-25.74 741.9-24.83 743.48-23.23 745.07-21.63 745.98-19.49 746.9-17.36 746.9-14.94L746.9-14.94 746.9 0 740.24 0 740.24-14.94Q740.24-15.97 739.84-16.88 739.45-17.8 738.77-18.48 738.09-19.17 737.18-19.56 736.28-19.95 735.25-19.95L735.25-19.95Q734.2-19.95 733.28-19.56 732.35-19.17 731.67-18.48 730.98-17.8 730.59-16.88 730.2-15.97 730.2-14.94L730.2-14.94ZM769.46 0L764.4 0Q761.99 0 759.86-0.92 757.74-1.83 756.14-3.43 754.54-5.03 753.62-7.15 752.71-9.28 752.71-11.69L752.71-11.69 752.71-19.46 749.46-19.46 749.46-26.1 752.71-26.1 752.71-36.55 759.35-36.55 759.35-26.1 769.46-26.1 769.46-19.46 759.35-19.46 759.35-11.69Q759.35-10.64 759.74-9.73 760.13-8.81 760.81-8.13 761.5-7.45 762.42-7.04 763.35-6.64 764.4-6.64L764.4-6.64 769.46-6.64 769.46 0ZM787.54 0L787.54 0 772.31 0 772.31-6.64 787.54-6.64Q788.23-6.64 788.72-7.13 789.2-7.62 789.2-8.3L789.2-8.3Q789.2-9.01 788.72-9.23 788.23-9.45 787.54-9.45L787.54-9.45 780.61-9.45Q778.88-9.45 777.36-10.11 775.85-10.77 774.73-11.9 773.6-13.04 772.96-14.55 772.31-16.06 772.31-17.8L772.31-17.8Q772.31-19.53 772.96-21.04 773.6-22.56 774.73-23.68 775.85-24.8 777.36-25.45 778.88-26.1 780.61-26.1L780.61-26.1 794.11-26.1 794.11-19.46 780.61-19.46Q779.93-19.46 779.44-18.97 778.95-18.48 778.95-17.8L778.95-17.8Q778.95-17.09 779.44-16.59 779.93-16.09 780.61-16.09L780.61-16.09 787.54-16.09Q789.25-16.09 790.77-15.52 792.28-14.94 793.4-13.92 794.53-12.89 795.19-11.45 795.85-10.01 795.85-8.3L795.85-8.3Q795.85-6.57 795.19-5.07 794.53-3.56 793.4-2.43 792.28-1.29 790.77-0.65 789.25 0 787.54 0Z" opacity="1" transform="matrix(1,0,0,1,0,0)" fill="#6b7280" class="undefined-text-1" data-fill-palette-color="secondary" id="text-1"></path></svg></g></svg></g></svg></g></svg></g><g></g></svg></g></svg></g></svg></g><g><path d="M80.172 90.288A122.216 122.216 0 0 1 315.348 90.288L312.589 90.288A119.456 119.456 0 0 0 82.931 90.288L80.172 90.288M80.172 156.912A122.216 122.216 0 0 0 315.348 156.912L312.589 156.912A119.456 119.456 0 0 1 82.931 156.912L80.172 156.912" fill="#6b7280" stroke="transparent" data-fill-palette-color="tertiary"></path></g></svg></g><defs></defs></svg><rect width="395.52" height="247.2" fill="none" stroke="none" visibility="hidden"></rect></g></svg></g></svg>